<svg xmlns="http://www.w3.org/2000/svg" width="32" height="32" viewBox="0 0 16 16" >
  <path d="M14 5.88V10.9688C14 11.4876 13.8095 11.9868 13.4674 12.3639C13.1253 12.741 12.6577 12.9675 12.1604 12.9969L12.05 13H3.95C3.45192 13 2.9727 12.8015 2.61066 12.4452C2.24862 12.0889 2.0312 11.6018 2.003 11.0837L2 10.9688V5.88L7.7912 9.04C7.85563 9.07515 7.92727 9.09351 8 9.09351C8.07273 9.09351 8.14437 9.07515 8.2088 9.04L14 5.88ZM3.95 3H12.05C12.5333 2.99994 12.9995 3.18687 13.358 3.52454C13.7166 3.86221 13.9419 4.32655 13.9904 4.8275L8 8.09625L2.0096 4.8275C2.05611 4.34645 2.26583 3.89845 2.60105 3.56404C2.93627 3.22963 3.37501 3.03074 3.8384 3.00313L3.95 3H12.05H3.95Z" fill="currentColor"/>
</svg>